<?xml version="1.0" encoding="utf-8"?>
<!-- Generator: Adobe Illustrator 25.4.1, SVG Export Plug-In . SVG Version: 6.00 Build 0)  -->
<svg version="1.1" id="Layer_1" xmlns="http://www.w3.org/2000/svg" xmlns:xlink="http://www.w3.org/1999/xlink" x="0px" y="0px"
	 viewBox="0 0 120 120" style="enable-background:new 0 0 120 120;" xml:space="preserve">
<style type="text/css">
	.st0{fill:#FFFFFF;}
</style>
<g>
	<path class="st0" d="M102.8,65.9l-0.4-0.1v-8.2c0-3.9-3.2-7.1-7.1-7.1h-48c-3.9,0-7.1,3.2-7.1,7.1V108c0,6.7,5.4,12.1,12.1,12.1
		h37.8c6.7,0,12.1-5.4,12.1-12.1v-3.2l0.4-0.1c9.8-1.3,17.2-9.6,17.2-19.5S112.5,67,102.8,65.9z M98.3,108.1c0,4.4-3.6,8.1-8.1,8.1
		H52.3c-4.4,0-8.1-3.6-8.1-8.1V57.6c0-1.7,1.4-3.1,3.1-3.1h48c1.7,0,3.1,1.4,3.1,3.1L98.3,108.1L98.3,108.1z M102.9,100.8l-0.6,0.1
		V69.8l0.6,0.1c7.6,1.3,13.1,7.7,13.1,15.4S110.5,99.5,102.9,100.8z"/>
	<path class="st0" d="M19.4,80.9h-0.5V42.4c0-1.7,1.4-3.1,3.1-3.1h28.3v5.1h4v-5.1h28.3c1.7,0,3.1,1.4,3.1,3.1v4.5h4v-4.5
		c0-3-1.9-5.6-4.7-6.7l-0.3-0.1v-6.3h2.4c0.4,0,0.7-0.1,1.1-0.3c0.4-0.3,0.7-0.7,0.8-1.3c0.1-0.5,0-1.1-0.3-1.5
		c-3.3-4.7-7.7-8.4-12.8-10.8c-5.2-2.5-10.8-4.1-16.6-4.9l-0.7-0.1l0.3-0.6C59.3,9,59.5,8,59.5,7.1c0-3.9-3.2-7.1-7.1-7.1
		s-7.1,3.2-7.1,7.1c0,1,0.2,1.9,0.5,2.7l0.3,0.6l-0.7,0.1c-5.8,0.7-11.4,2.3-16.6,4.9c-5.2,2.4-9.5,6.1-12.8,10.8
		c-0.2,0.3-0.3,0.7-0.3,1.1c0,0.5,0.2,1.1,0.6,1.4c0.4,0.3,0.8,0.6,1.4,0.6h2.4v6.3l-0.3,0.1c-2.9,1-4.7,3.7-4.7,6.7v3.1H12
		c-6.5,0-11.9,5.4-11.9,12v40.4c0,6.7,5.4,12.1,12.1,12.1h3.2l0.1,0.4c1.2,5.6,6.1,9.6,11.8,9.6h9.5v-4h-9.5c-4.4,0-8.1-3.6-8.1-8.1
		V84.7l0.6,0.1c2.3,0.3,4.5,1.1,6.7,2.2c3.2,1.8,6.8,2.7,10.5,2.7v-4c-3.1,0-6-0.8-8.7-2.3C25.4,82,22.5,81.2,19.4,80.9z M80.6,35.4
		H24v-6.1h56.6V35.4z M52.3,4c1.7,0,3.1,1.4,3.1,3.1s-1.4,3.1-3.1,3.1c-1.7,0-3.1-1.4-3.1-3.1S50.6,4,52.3,4z M22.7,24.3
		c2.3-2.2,5-4,7.9-5.4c6.6-3.2,14-4.9,21.3-4.9H53c7.3,0,14.6,1.7,21.3,4.9c2.9,1.4,5.5,3.2,7.9,5.4l1,1H21.7L22.7,24.3z M15,106
		h-3.1c-4.4,0-8.1-3.6-8.1-8.1V57.5c0-4.4,3.6-8.1,8.1-8.1H15V106z"/>
	<rect x="88.2" y="65.7" class="st0" width="4" height="29.2"/>
	<path class="st0" d="M95.4,36.8h6.9v-4l-6.9,0.1l-0.3-0.2c-0.4-0.5-0.6-1.1-0.5-1.7c0-0.5,0.1-1,0.2-1.2v-0.1l0.1,0.3l0.3,0.2
		l0.1-1.1h15.3c3,0,5.4-2.9,5.6-6.6h-4c-0.1,1.6-1,2.5-1.6,2.5H95.4c-2.9,0.3-5,2.9-4.8,5.7V31c-0.1,1.4,0.3,2.7,1.2,3.8
		C92.8,36.1,94.1,36.7,95.4,36.8z"/>
	<path class="st0" d="M105.8,32.9v4h8.5c0.6,0,1.6,1.2,1.6,3.1s-1,3.1-1.6,3.1H95.7v4h18.6c3.2,0,5.6-3.1,5.6-7.1
		c0-3.9-2.4-7.1-5.6-7.1H105.8L105.8,32.9z"/>
	<rect x="88.2" y="101" class="st0" width="4" height="4"/>
</g>
</svg>
