<?xml version="1.0" encoding="utf-8"?>
<!-- Generator: Adobe Illustrator 25.4.1, SVG Export Plug-In . SVG Version: 6.00 Build 0)  -->
<svg version="1.1" id="Layer_1" xmlns="http://www.w3.org/2000/svg" xmlns:xlink="http://www.w3.org/1999/xlink" x="0px" y="0px"
	 viewBox="0 0 118.4 118.4" style="enable-background:new 0 0 118.4 118.4;" xml:space="preserve">
<style type="text/css">
	.st0{fill:#FFFFFF;}
</style>
<g>
	<path class="st0" d="M42.1,24.7c-0.9,0-1.7-0.8-1.7-1.7V10.2c0-0.9,0.8-1.7,1.7-1.7h12.8c0.9,0,1.7,0.8,1.7,1.7V23
		c0,0.9-0.8,1.7-1.7,1.7H42.1z M43.8,21.3h9.3v-9.4h-9.4L43.8,21.3L43.8,21.3z"/>
	<path class="st0" d="M29.3,118.3c-0.2,0-0.4,0-0.5-0.1c-0.4-0.1-0.8-0.4-1-0.9c-0.2-0.4-0.2-0.9-0.1-1.3l4.1-12.4V60.8L23.7,65
		c-0.2,0.1-0.5,0.2-0.8,0.2c-0.2,0-0.5-0.1-0.7-0.2c-0.4-0.2-0.7-0.5-0.9-1c-0.2-0.4-0.1-0.9,0-1.3l10.5-23v-38
		c0-0.4,0.2-0.9,0.5-1.2C32.7,0.2,33.1,0,33.6,0h34.3c0.8,0,1.5,0.6,1.7,1.4c0.5,2.5,2.1,4.7,4.3,5.9C74.8,7.9,75,9,74.5,9.7
		c-0.2,0.3-0.4,0.7-0.5,1.1c-0.2,0.5-0.3,1-0.3,1.5s0.1,1,0.3,1.6c0.1,0.2,0.2,0.4,0.3,0.5c0.2,0.3,0.4,0.6,0.6,0.8s0.3,0.4,0.5,0.5
		c0.2,0.2,0.5,0.4,0.7,0.5c0.3,0.2,0.5,0.3,0.6,0.3c0.6,0.2,1.1,0.3,1.7,0.3c0.7,0,1.5-0.2,2.1-0.5c0.3-0.1,0.5-0.2,0.8-0.2
		c0.7,0,1.3,0.4,1.6,1c0.6,1.3,1.6,2.3,2.8,3.1c0.5,0.3,0.9,0.9,0.9,1.5v21.9L97,62.5c0.3,0.5,0.3,1.1,0,1.6
		c-0.3,0.6-0.9,0.9-1.5,0.9l0,0c-0.3,0-0.5-0.1-0.8-0.2l-8.2-4.1v42.7l4.2,12.6c0.1,0.4,0.1,0.9-0.1,1.4c-0.3,0.5-0.9,0.9-1.5,0.9
		c-0.3,0-0.6-0.1-0.8-0.2l-6.4-3.6l-6.8,3.6c-0.3,0.1-0.5,0.2-0.8,0.2c-0.3,0-0.6-0.1-0.8-0.2l-6.4-3.5l-6.8,3.6
		c-0.3,0.1-0.5,0.2-0.8,0.2s-0.6-0.1-0.8-0.2l-6.4-3.6l-6.8,3.6c-0.3,0.1-0.5,0.2-0.8,0.2s-0.6-0.1-0.8-0.2l-6.4-3.6l-7.4,3.5
		C29.9,118.3,29.6,118.3,29.3,118.3z M36.8,110.8c0.3,0,0.6,0.1,0.8,0.2l6.4,3.6l6.8-3.6c0.3-0.1,0.5-0.2,0.8-0.2s0.6,0.1,0.8,0.2
		l6.4,3.5l6.8-3.5c0.3-0.1,0.5-0.2,0.8-0.2c0.3,0,0.6,0.1,0.8,0.2l6.4,3.5l6.8-3.5c0.3-0.1,0.5-0.2,0.8-0.2c0.3,0,0.6,0.1,0.8,0.2
		l3.6,2l-2.5-7.5H34.5L32,113l3.6-2C36.2,110.9,36.5,110.8,36.8,110.8z M35.3,59.2v43H83V62.3L74.5,65c-0.2,0.1-0.4,0.1-0.5,0.1
		c-0.5,0-0.9-0.2-1.2-0.5l-7.5-7.5l-11.6,7.7c-0.3,0.2-0.6,0.3-0.9,0.3s-0.7-0.1-1-0.3l-12-8L35.3,59.2z M65.5,53.2
		c0.5,0,0.9,0.2,1.2,0.5l7.8,7.8l11.8-3.9c0.2-0.1,0.4-0.1,0.5-0.1c0.3,0,0.5,0.1,0.8,0.2l3.6,1.8l-7.4-13.4l-49.1-4.3l-8.2,18
		l12.7-6.4c0.2-0.1,0.5-0.2,0.8-0.2s0.7,0.1,0.9,0.3l11.8,7.9l11.8-7.9C64.8,53.3,65.1,53.2,65.5,53.2z M76.1,29.8
		c0.9,0,1.7,0.8,1.7,1.7V42l5.1,0.4V22.5c-0.8-0.9-1.5-1.6-2.1-2.4l-0.2-0.2l-0.9,0.3c-0.5,0.2-1,0.3-1.5,0.3h-0.4V23
		c0,0.9-0.8,1.7-1.7,1.7H63.4c-0.9,0-1.7-0.8-1.7-1.7V10.2c0-0.4,0.2-0.9,0.5-1.2s0.8-0.5,1.2-0.5h6.7l-0.7-0.7
		c-1.1-1.2-2-2.6-2.5-4.1l-0.1-0.3H35.3v35l5.1,0.4v-7.4c0-0.4,0.2-0.9,0.5-1.2s0.8-0.5,1.2-0.5h12.8c0.9,0,1.7,0.8,1.7,1.7v8.7
		l5.1,0.4v-9.1c0-0.4,0.2-0.9,0.5-1.2s0.8-0.5,1.2-0.5L76.1,29.8L76.1,29.8z M65.1,40.9l9.4,0.8v-8.5h-9.4V40.9z M43.8,39.2l9.4,0.8
		v-6.7h-9.4V39.2z M65.1,21.3h9.4v-1.6c-2.7-1.8-4.3-4.5-4.3-7.3V12h-5.1C65.1,12,65.1,21.3,65.1,21.3z"/>
</g>
</svg>
