<?xml version="1.0" encoding="utf-8"?>
<!-- Generator: Adobe Illustrator 25.4.1, SVG Export Plug-In . SVG Version: 6.00 Build 0)  -->
<svg version="1.1" id="Layer_1" xmlns="http://www.w3.org/2000/svg" xmlns:xlink="http://www.w3.org/1999/xlink" x="0px" y="0px"
	 viewBox="0 0 123.4 123.4" style="enable-background:new 0 0 123.4 123.4;" xml:space="preserve">
<style type="text/css">
	.st0{fill:#FFFFFF;}
</style>
<path class="st0" d="M39.4,121.5c-15.4,0-24.7-11.3-29.8-20.8C2.5,87.6,0,72,0,61.7C0,36.9,12.2,1.9,39.4,1.9c8.4,0,15.4,3,21.8,9.5
	l0.5,0.5l0.7,0.2c15.6,3.3,30.2,13.6,37.9,21.3c9.5,9.8,17.3,22.8,20.9,34.8c3.1,10.3,4.5,24.9-6.4,35.8c-5.8,5.6-13.3,8.5-22,8.5
	c-7.6,0-16-2.2-24.5-6.3l-1.9-0.9l-1.2,1.7C58.4,116.6,49.7,121.5,39.4,121.5z M42.4,9.8c-9.4,25.5-4.9,38.5-0.6,51.1
	c5,13.4,8.7,26.3,3.7,49.6l-1.1,5l4.6-2.2c16.8-8.1,24.5-32.5,24.5-51.6C73.5,43.4,66,14,45.4,8.3l-2.2-0.6L42.4,9.8z M32.6,8.9
	c-19.7,7-26.9,35.4-26.9,52.8c0,15.9,7.5,49.8,30.6,53.5l2.2,0.4l0.6-2.2c6.6-24.7,1.7-38.1-2.6-50l-0.1-0.3
	c-4.6-13.2-8.9-25.8-0.5-51l1.6-4.8L32.6,8.9z M78.2,72.1c-1,8.4-3.7,17.9-7.3,26.1l-1,2.2l2.2,1c7.1,3.4,14.2,5.2,20.4,5.2
	c6.1,0,11.4-1.6,15.9-4.9l1.9-1.4l-1.2-2C100.8,84.7,92.5,76,81.9,70l-3.2-1.8L78.2,72.1z M70.9,25.2c4.7,10.4,7.8,23.4,8.4,35.6
	l0.1,1.4l1.3,0.7c8.8,4.7,19.2,11.1,30.7,29.2l2.7,4.3l1.7-4.8c3.1-8.5,2.2-18.8-2.6-29.6c-3.7-8.3-9.8-17.1-16.8-24
	c-3.7-3.7-11.5-10.7-22.1-16L68,18.7L70.9,25.2z"/>
</svg>
