<?xml version="1.0" encoding="utf-8"?>
<!-- Generator: Adobe Illustrator 24.1.1, SVG Export Plug-In . SVG Version: 6.00 Build 0)  -->
<svg version="1.1" id="Layer_1" xmlns="http://www.w3.org/2000/svg" xmlns:xlink="http://www.w3.org/1999/xlink" x="0px" y="0px"
	 viewBox="0 0 125 125" style="enable-background:new 0 0 125 125;" xml:space="preserve">
<style type="text/css">
	.st0{fill:#FFFFFF;}
</style>
<g>
	<path class="st0" d="M15.6,125C7,125,0,118,0,109.4V15.6C0,7,7,0,15.6,0h93.8C118,0,125,7,125,15.6v93.8c0,8.7-7,15.6-15.6,15.6
		H15.6z M5.7,109.4c0,5.5,4.4,9.9,9.9,9.9h93.8c5.5,0,9.9-4.4,9.9-9.9V46.9H93.6c-2.6,0-5,1.1-5.5,2.6c-2.7,6.1-10.2,10.2-18.6,10.2
		H55.3c-8.2,0-15.8-4.1-18.6-10.2c-0.6-1.4-3-2.6-5.5-2.6H5.7V109.4z M15.6,5.7c-5.5,0-9.9,4.4-9.9,9.9v25.6h25.4
		c5,0,9.1,2.3,10.8,5.8c2,4.1,7.5,7,13.5,7h14.2c6,0,11.5-2.8,13.5-7c1.7-3.6,5.8-5.8,10.8-5.8h25.4V15.6c0-5.5-4.4-9.9-9.9-9.9
		H15.6z M58.2,44c-8.7,0-15.6-7-15.6-15.6s7-15.6,15.6-15.6h8.5c8.7,0,15.6,7,15.6,15.6S75.4,44,66.8,44C66.8,44,58.2,44,58.2,44z
		 M62.5,29.8c1.6,0,2.8,1.3,2.8,2.8v5.7h1.4c5.5,0,9.9-4.4,9.9-9.9s-4.4-9.9-9.9-9.9h-8.5c-5.5,0-9.9,4.4-9.9,9.9s4.4,9.9,9.9,9.9
		h1.4v-5.7C59.7,31,60.9,29.8,62.5,29.8z"/>
</g>
</svg>
