<?xml version="1.0" encoding="utf-8"?>
<!-- Generator: Adobe Illustrator 26.5.0, SVG Export Plug-In . SVG Version: 6.00 Build 0)  -->
<svg version="1.1" id="Layer_1" xmlns="http://www.w3.org/2000/svg" xmlns:xlink="http://www.w3.org/1999/xlink" x="0px" y="0px"
	 viewBox="0 0 28 28" style="enable-background:new 0 0 28 28;" xml:space="preserve">
<style type="text/css">
	.st0{fill:#00CCC2;}
</style>
<path class="st0" d="M22.6,9.2c0-1.1-0.4-2.2-1.1-3c-0.7-0.8-1.7-1.4-2.8-1.6v0c0-1.6-0.9-3.2-2.3-4c-1.4-0.8-3.2-0.8-4.6,0
	c-1.4,0.8-2.3,2.3-2.3,4v0C8.2,4.7,7.2,5.3,6.5,6.1C5.8,7,5.4,8.1,5.3,9.2c0,1,0.3,1.9,0.9,2.7c0.6,0.8,1.4,1.4,2.3,1.6l4.9,14
	c0.1,0.3,0.3,0.4,0.6,0.4h0c0.3,0,0.5-0.2,0.6-0.4l4.6-14c0.9-0.3,1.8-0.9,2.4-1.7C22.2,11.1,22.6,10.2,22.6,9.2L22.6,9.2z M14,1.3
	c0.9,0,1.7,0.3,2.4,1c0.6,0.6,1,1.5,1,2.4c0,0-0.1,0-0.1,0c-0.1,0-0.2,0-0.3,0.1c0,0-0.1,0-0.1,0c-0.1,0-0.3,0.1-0.4,0.1
	c0,0,0,0-0.1,0l0,0C16.2,4.9,16,5,15.9,5.1c0,0-0.1,0-0.1,0.1c-0.1,0.1-0.2,0.1-0.3,0.2c0,0-0.1,0.1-0.1,0.1
	c-0.1,0.1-0.2,0.1-0.3,0.2c0,0-0.1,0-0.1,0.1h0c-0.1,0.1-0.2,0.2-0.3,0.3c0,0,0,0-0.1,0.1c-0.1,0.1-0.2,0.2-0.2,0.3
	c0,0-0.1,0.1-0.1,0.1c-0.1,0.1-0.1,0.2-0.2,0.3c0,0,0,0,0,0.1c0,0,0-0.1-0.1-0.1c-0.1-0.1-0.1-0.2-0.2-0.3c0,0-0.1-0.1-0.1-0.1
	c-0.1-0.1-0.2-0.2-0.2-0.3c0,0,0,0-0.1-0.1c-0.1-0.1-0.2-0.2-0.3-0.3c0,0-0.1,0-0.1-0.1c-0.1-0.1-0.2-0.1-0.3-0.2
	c0,0-0.1-0.1-0.1-0.1c-0.1-0.1-0.2-0.1-0.3-0.2c0,0-0.1,0-0.1-0.1v0C12,5,11.8,4.9,11.7,4.9c0,0,0,0-0.1,0c-0.1,0-0.3-0.1-0.4-0.1
	c0,0-0.1,0-0.1,0c-0.1,0-0.2-0.1-0.4-0.1c0,0-0.1,0-0.1,0c0-0.9,0.4-1.7,1-2.4C12.2,1.6,13.1,1.3,14,1.3L14,1.3z M6.6,9.2
	c0-0.9,0.4-1.7,1-2.4c0.6-0.6,1.5-1,2.4-1c0.8,0,1.6,0.3,2.2,0.8c0.6,0.5,1,1.2,1.1,2c0,0,0,0,0,0.1c0,0.1,0,0.3,0,0.4
	c0,0.3,0,0.6-0.2,0.9c0,0,0,0,0,0.1c-0.2,0.7-0.6,1.3-1.2,1.7c-0.6,0.4-1.3,0.7-2,0.7c-0.2,0-0.5,0-0.7-0.1c0,0-0.1,0-0.1,0
	c-0.7-0.2-1.4-0.6-1.9-1.2C6.9,10.7,6.6,9.9,6.6,9.2L6.6,9.2z M14,25.4l-4-11.6c0.2,0,0.4,0,0.7-0.1c0.1,0,0.1,0,0.2,0v0
	c0.2,0,0.3-0.1,0.5-0.1c0.1,0,0.2-0.1,0.2-0.1c0.1-0.1,0.3-0.1,0.4-0.2c0.1,0,0.1-0.1,0.2-0.1c0.1-0.1,0.3-0.2,0.4-0.2
	c0.1,0,0.1-0.1,0.2-0.1h0c0.2-0.1,0.3-0.3,0.5-0.4c0,0,0,0,0,0c0.2-0.2,0.3-0.3,0.4-0.5c0-0.1,0.1-0.1,0.1-0.2
	c0.1-0.1,0.1-0.2,0.2-0.3c0.1,0.1,0.1,0.2,0.2,0.3c0,0.1,0.1,0.1,0.1,0.2v0c0.1,0.2,0.3,0.3,0.4,0.5c0,0,0.1,0.1,0.1,0.1h0
	c0.1,0.1,0.3,0.2,0.4,0.4c0.1,0,0.1,0.1,0.2,0.1c0.1,0.1,0.2,0.2,0.4,0.2c0.1,0,0.1,0.1,0.2,0.1c0.1,0.1,0.3,0.1,0.4,0.2
	c0.1,0,0.1,0.1,0.2,0.1v0c0.2,0.1,0.4,0.1,0.6,0.1c0,0,0.1,0,0.1,0c0.2,0,0.4,0.1,0.6,0.1L14,25.4z M18.7,12.4L18.7,12.4
	c-0.2,0.1-0.4,0.1-0.7,0.1c-0.7,0-1.4-0.2-2-0.6c-0.6-0.4-1-1-1.2-1.7c0,0,0,0,0-0.1c-0.1-0.3-0.2-0.6-0.2-0.9c0-0.1,0-0.3,0-0.4
	c0,0,0,0,0-0.1c0.1-0.8,0.5-1.5,1.2-2.1c0.6-0.5,1.4-0.8,2.2-0.8c0.8,0,1.6,0.3,2.2,0.9c0.6,0.6,1,1.3,1,2.1
	c0.1,0.8-0.2,1.6-0.6,2.3C20.2,11.8,19.5,12.3,18.7,12.4L18.7,12.4z"/>
</svg>
