<?xml version="1.0" encoding="utf-8"?>
<!-- Generator: Adobe Illustrator 21.1.0, SVG Export Plug-In . SVG Version: 6.00 Build 0)  -->
<svg version="1.1" id="Layer_1" xmlns="http://www.w3.org/2000/svg" xmlns:xlink="http://www.w3.org/1999/xlink" x="0px" y="0px"
	 viewBox="0 0 79 120" style="enable-background:new 0 0 79 120;" xml:space="preserve">
<style type="text/css">
	.st0{fill:#FFFFFF;}
</style>
<g>
	<path class="st0" d="M13.8999996,120c-4.1000004,0-7.5-3.4000015-7.5-7.5c0-3.8000031,5.6000004-9.3000031,6.6999998-10.4000015
		c0.1999998-0.1999969,0.5-0.3000031,0.8000002-0.3000031s0.6000004,0.0999985,0.8000002,0.3000031
		c1.1000004,1.0999985,6.6999998,6.5999985,6.6999998,10.4000015C21.3999996,116.6000061,18.1000004,120,13.8999996,120z
		 M13.6000004,104.8000031c-0.8000002,0.9000015-4.8999996,5.3000031-4.8999996,7.6999969
		c0,2.9000015,2.3999996,5.3000031,5.3000002,5.3000031s5.3000002-2.4000015,5.3000002-5.3000031
		c0-2.4000015-4.1000004-6.8000031-4.8999996-7.6999969l-0.3000002-0.4000015L13.6000004,104.8000031z"/>
	<path class="st0" d="M10.6999998,91.2000046c-0.6000004,0-1.1000004-0.5-1.1000004-1.0999985s0.5-1.0999985,1.1000004-1.0999985v-1
		H4.3000002c-0.4000001,0-0.8-0.2000046-1-0.5999985l-3.2-6.4000015C0,80.8000031,0,80.7000046,0,80.5V67.7000046
		c0-0.5999985,0.5-1.0999985,1.1-1.0999985h25.6000004c0.6000004,0,1.1000004,0.5,1.1000004,1.0999985V73h7.3999996v-5.2999954
		c0-0.5,0.2999992-0.9000015,0.7999992-1.0999985c0.0999985,0,0.2000008-0.0999985,0.4000015-0.0999985
		c0.2999992,0,0.7000008,0.2000046,0.9000015,0.4000015c0.2000008,0.3000031,2.2000008,2.5999985,5.5,2.8000031
		c0.2000008,0,0.4000015,0,0.5999985,0C46.7000008,69.7000122,48,68.6000061,48,67.6000061
		c0-0.3999939,0.0999985-0.5999908,0.4000015-0.8999939c0.2000008-0.2000046,0.5-0.3000031,0.7000008-0.3000031
		c0.0999985,0,0.0999985,0,0.2000008,0L75,69.8000031c2.4000015,0.3000031,4,2.0999985,4,4.3000031
		c0,2.1999969-1.6999969,4-4,4.2999954l-25.7000008,3.2000046l0,0c-0.4000015,0-0.5999985-0.1000061-0.7999992-0.3000031
		s-0.4000015-0.5-0.4000015-0.8000031C48,79.5,46.6999969,78.4000092,43.3999977,78.4000092c-0.2000008,0-0.4000015,0-0.5999985,0
		C39.5,78.5,37.5,80.9000092,37.2999992,81.1000061c-0.2000008,0.3000031-0.5999985,0.5-0.9000015,0.5
		c-0.0999985,0-0.2000008,0-0.4000015-0.0999985c-0.5-0.2000046-0.7999992-0.5999985-0.7999992-1.0999985v-5.3000031h-7.3999996
		v5.3000031c0,0.1999969,0,0.3000031-0.1000004,0.5L24.5,87.3000031c-0.2000008,0.4000015-0.6000004,0.5999985-1,0.5999985
		h-6.3999996v1c0.6000004,0,1.1000004,0.5,1.1000004,1.0999985s-0.5,1.0999985-1.1000004,1.0999985L10.6999998,91.2000046
		L10.6999998,91.2000046z M2.2,80.2000046L5,85.8000031h17.7999992l2.7999992-5.5v-11.5H2.2V80.2000046z M43.2999992,76.2000046
		c2.5999985,0,4.5999985,0.5999985,5.7999992,1.7999954c0.2999992,0.3000031,0.5,0.6000061,0.7000008,1L50,79.3000031
		l24.6999969-3.0999985C76.1999969,76,76.7999954,75,76.7999954,74.1000061c0-0.8000031-0.5-1.9000015-2.0999985-2.0999985
		L50,68.9000015l-0.2000008,0.2999954c-0.2000008,0.4000092-0.4000015,0.7000046-0.7000008,1
		C47.8999977,71.4000015,46,72,43.3999977,72c-0.2000008,0-0.5,0-0.7000008,0c-1.5999985-0.0999985-3.0999985-0.5-4.5-1.3000031
		l-0.7999954-0.3999939V78l0.7000008-0.3999939c1.4000015-0.8000031,2.9000015-1.3000031,4.5-1.3000031
		C42.9000015,76.2000046,43.0999985,76.2000046,43.2999992,76.2000046z"/>
</g>
</svg>
