<?xml version="1.0" encoding="utf-8"?>
<!-- Generator: Adobe Illustrator 21.1.0, SVG Export Plug-In . SVG Version: 6.00 Build 0)  -->
<svg version="1.1" id="Layer_1" xmlns="http://www.w3.org/2000/svg" xmlns:xlink="http://www.w3.org/1999/xlink" x="0px" y="0px"
	 viewBox="0 0 59 120" style="enable-background:new 0 0 59 120;" xml:space="preserve">
<style type="text/css">
	.st0{fill:#FFFFFF;}
</style>
<g>
	<path class="st0" d="M53.7000008,76.5999985C52.9000015,75.3000031,51.6000023,74.5,50.1000023,74.3000031
		c-0.2999992-0.1000061-0.5999985-0.1000061-1-0.1000061c-1.0999985,0-2.2000008,0.4000092-3.0999985,1.1000061
		l-1.9000015,1.3999939L44,76.3999939c-0.2999992-0.2999954-0.5999985-0.5999908-0.9000015-0.7999954l-0.2999992-0.2000046
		L43,75.0999985c0.9000015-1,1.4000015-2.0999985,1.4000015-3.2000046c0-1.8999939-1.0999985-3.5-2.7999992-4.1999969
		l-0.2000008-0.0999985L42.6000023,61.5c0.0999985-0.2999992,0-0.5999985-0.2000008-0.9000015
		c-0.2000008-0.2000008-0.5-0.5-0.7999992-0.5l-33.8000031-6c-0.0999999,0-0.0999999,0-0.1999998,0
		c-0.3000002,0-0.6999998,0.2000008-0.9000001,0.4000015c-0.1999998,0.1999969-0.5,0.6999969-0.4000001,1.1999969
		l3.0999994,12.4000015l-0.1999998,0.0999985C7.8000002,69.0999985,7,70.5999985,7,72.1999969
		C7,73.5,7.5,74.5999985,8.3000002,75.3999939l0.3000002,0.2000046l-0.3000002,0.2000046C3,80.3999939,0,87.1999969,0,94.4000015
		C0,108.5,11.6000004,120,25.7999992,120S51.5,108.5,51.5,94.4000015c0-5.7999954-1.9000015-11.2000046-5.5-15.7000046
		L45.7999992,78.5L47.5,77.1999969c0.5-0.3999939,1.0999985-0.5999908,1.7999992-0.5999908c0.0999985,0,0.2999992,0,0.4000015,0
		c0.7999992,0.0999908,1.5,0.5999908,2,1.2999954c3.2000008,5,4.9000015,10.7999954,4.9000015,16.5999985
		c0,3.5999985-0.5999985,7-1.9000015,10.4000015C54.5,105.5,54.7999992,106.2000046,55.5,106.5
		c0.0999985,0.0999985,0.2000008,0.0999985,0.4000015,0.0999985c0.5,0,1-0.3000031,1.2000008-0.8000031
		c1.2999992-3.5999985,2-7.5,2-11.3000031C59,88,57.2000008,81.8999939,53.7000008,76.5999985z M42.0999985,71.8999939
		c0,1.2000046-1,2.3000031-2.2999992,2.3000031h-28c-1.1999998,0-2.3000002-1-2.3000002-2.3000031
		c0-1,0.6999998-1.8999939,1.6999998-2.1999969h0.1000004c0.1000004,0,0.1999998-0.0999985,0.3000002-0.0999985h28.1000023
		C41,69.5999985,42.0999985,70.5999985,42.0999985,71.8999939z M9.3000002,56.7999992l30.6000023,5.5L39,67.3000031H12
		L9.3000002,56.7999992z M49.2000008,94.4000015C49.1000023,107.2000046,38.5999985,117.5,25.9000015,117.5
		C13,117.5,2.5999999,107.0999985,2.5999999,94.4000015c0-6.9000015,3.0999999-13.4000015,8.5-17.7999954L11.2000008,76.5h0.1000004
		c0.1000004,0,0.3000002,0,0.3999996,0.1000061c0.1000004,0,0.1999998,0,0.1999998,0h28c0.2000008,0,0.2999992,0,0.5-0.1000061
		l0.2000008-0.0999908L40.8000031,76.5C46,81,49.2000008,87.5,49.2000008,94.4000015z"/>
	<path class="st0" d="M6.5999999,94.2999954c-0.1999998,0.1999969-0.3000002,0.5-0.3000002,0.9000015
		c0.4000001,10.4000015,9,18.5999985,19.5,18.5999985c10.6000023,0,19.1000023-8.1999969,19.5-18.5999985
		c0-0.4000015-0.0999985-0.6999969-0.2999992-0.9000015c-0.2999992-0.3000031-0.5999985-0.4000015-0.9000015-0.4000015H7.5
		C7.0999999,93.9000015,6.9000001,94.0999985,6.5999999,94.2999954z M42.7000008,96.4000015v0.4000015
		c-1.2000008,8.4000015-8.2999992,14.5999985-17,14.5999985s-15.8000002-6.0999985-17-14.5999985v-0.4000015H42.7000008z"/>
	<path class="st0" d="M8,91.5h0.3000002c0.6000004,0,1.1000004-0.4000015,1.1999998-1c0.3000002-2,1-3.8000031,2.1999998-5.5
		C12.0999994,84.4000015,12,83.6999969,11.3999996,83.3000031C11.1999998,83.1999969,11,83.0999985,10.8000002,83.0999985
		c-0.3999996,0-0.8000002,0.2000046-1,0.5999985c-1.1999998,1.8000031-2.0999999,4-2.5,6.4000015
		C7.2000003,90.5,7.3000002,90.8999939,7.5,91.1999969C7.5,91.4000015,7.8000002,91.5,8,91.5z"/>
	<path class="st0" d="M13.6999998,82.3000031c0.1000004,0,0.5,0,0.8000002-0.3000031
		c0.5-0.4000015,0.8000002-0.5999985,0.8999996-0.5999985c0.3000002-0.0999985,0.3999996-0.4000015,0.5-0.7000046
		c0.1000004-0.2999954,0-0.6999969-0.1999998-1C15.5,79.3000031,15.0999994,79.1000061,14.5999994,79.1000061
		c-0.1999998,0-0.5,0.0999908-0.6999998,0.1999969c0,0-0.5,0.3000031-1.1000004,0.9000015
		c-0.1999998,0.2000046-0.3999996,0.5-0.3999996,0.7999954c0,0.3000031,0.1000004,0.7000046,0.1999998,0.9000092
		C13,82.0999985,13.3999996,82.3000031,13.6999998,82.3000031z"/>
	<path class="st0" d="M14.1999998,64.6999969c0.1999998,0.5,0.6000004,0.8000031,1.1000004,0.8000031
		C15.5,65.5,15.5,65.5,15.6999998,65.3999939c0.6999998-0.2999954,1.000001-0.8999939,0.6999998-1.5999947l-0.6000004-2
		C15.5999994,61.2999992,15.1999989,61,14.6999989,61c-0.1000004,0-0.3000002,0-0.5,0.0999985
		c-0.3000002,0.0999985-0.5,0.2999992-0.6999998,0.5C13.2999992,61.8999977,13.2999992,62.1999969,13.3999987,62.5
		L14.1999998,64.6999969z"/>
</g>
</svg>
