<?xml version="1.0" encoding="utf-8"?>
<!-- Generator: Adobe Illustrator 21.1.0, SVG Export Plug-In . SVG Version: 6.00 Build 0)  -->
<svg version="1.1" id="Layer_1" xmlns="http://www.w3.org/2000/svg" xmlns:xlink="http://www.w3.org/1999/xlink" x="0px" y="0px"
	 viewBox="0 0 51.5999985 120" style="enable-background:new 0 0 51.5999985 120;" xml:space="preserve">
<style type="text/css">
	.st0{fill:#FFFFFF;}
</style>
<g>
	<path class="st0" d="M27.7999992,70.5c0.2999992,0.5999985,0.5,0.9000015,0.6000004,1.0999985
		c0.2000008,0.2999954,0.6000004,0.5,1,0.5C29.6999989,72.0999985,30,72,30.1999989,71.8000031
		c0.2999992-0.2000046,0.3999996-0.5,0.5-0.8000031c0-0.3000031-0.1000004-0.6999969-0.2999992-0.9000015
		c-0.1000004-0.0999985-0.2000008-0.4000015-0.2999992-0.5C29.5,68.3000031,29.6000004,66.8000031,30.5,65.3000031
		c1.2999992-2.2000046,1.3999996-4.5000038,0.5-6.6000023c-0.2999992-0.5999985-0.5-0.9000015-0.6000004-1.0999985
		c-0.2000008-0.2999992-0.6000004-0.5-1-0.5c-0.2999992,0-0.6000004,0.1000023-0.7999992,0.2999992
		c-0.2999992,0.2000008-0.3999996,0.5-0.5,0.7999992c0,0.2999992,0.1000004,0.7000008,0.2999992,0.9000015
		c0.1000004,0.0999985,0.2000008,0.2999992,0.2999992,0.5c0.6000004,1.2999992,0.5,2.7999992-0.3999996,4.2999992
		C27.1000004,66.1000061,26.8999996,68.4000015,27.7999992,70.5z"/>
	<path class="st0" d="M7,70.5c0.3000002,0.5999985,0.5,0.9000015,0.5999999,1.0999985
		c0.1999998,0.2999954,0.5999999,0.5,1.0000005,0.5c0.3000002,0,0.6000004-0.0999985,0.8000002-0.2999954
		c0.3000002-0.2000046,0.3999996-0.5,0.5-0.8000031c0-0.3000031-0.1000004-0.6999969-0.3000002-0.9000015
		C9.5,70,9.4000006,69.8000031,9.3000002,69.5999985c-0.6000004-1.2999954-0.5-2.7999954,0.3999996-4.2999954
		c1.3000002-2.2000046,1.3999996-4.5000038,0.5-6.6000023c-0.3000002-0.5999985-0.5-0.9000015-0.6000004-1.0999985
		c-0.1999998-0.2999992-0.6000004-0.5-1-0.5c-0.3000002,0-0.5999999,0.1000023-0.8000002,0.2999992
		c-0.3000002,0.2000008-0.4000001,0.5-0.5,0.7999992c0,0.2999992,0.0999999,0.7000008,0.3000002,0.9000015
		c0.0999999,0.0999985,0.1999998,0.2999992,0.3000002,0.5c0.6000004,1.2999992,0.5,2.7999992-0.4000001,4.2999992
		C6.1999998,66.1000061,6,68.4000015,7,70.5z"/>
	<path class="st0" d="M17.1000004,69.9000015C17.5,70.8000031,17.8000011,71.3000031,17.8999996,71.5
		c0.2000008,0.3000031,0.6000004,0.5999985,1,0.5999985c0.2000008,0,0.5-0.0999985,0.7000008-0.2000046
		c0.2999992-0.1999969,0.5-0.5,0.5-0.7999954c0.1000004-0.2999954,0-0.7000046-0.2000008-0.9000015
		C19.7999992,70,19.5,69.5999985,19.2999992,69c-1-2.5-0.7999992-4.8000031,0.6000004-6.8000031
		c2.2999992-3.5,1.7000008-6.9000015,0.7999992-9.2000008c-0.3999996-0.8999977-0.7000008-1.3999977-0.7999992-1.6000023
		c-0.2000008-0.2999954-0.6000004-0.5999985-1-0.5999985c-0.2000008,0-0.5,0.0999985-0.7000008,0.2000008
		c-0.2999992,0.2000008-0.5,0.5-0.5,0.7999992c-0.1000004,0.2999992,0,0.7000008,0.2000008,0.9000015
		C18,52.8999939,18.2999992,53.2999954,18.5,53.8999939c1,2.5,0.7999992,4.8000031-0.6000004,6.8000031
		C15.6000004,64.1999969,16.2000008,67.6000061,17.1000004,69.9000015z"/>
	<path class="st0" d="M50.2999992,86.1999969H38v-5c0-0.6999969-0.5999985-1.2999954-1.2999992-1.2999954H1.3
		c-0.7,0-1.3,0.5999985-1.3,1.2999954v29.2000046C0,115.7000046,4.3000002,120,9.6000004,120h18.7999992
		C33.7000008,120,38,115.6999969,38,110.4000015v-5.1999969c1.4000015,1.4000015,3.4000015,2.1999969,5.5,2.1999969
		c4.4000015,0,8-3.5999985,8-8v-12C51.5999985,86.8000031,51,86.1999969,50.2999992,86.1999969z M35.5,110.5
		c0,3.9000015-3.2000008,7.0999985-7.1000004,7.0999985H9.6000004c-3.9000001,0-7.0999999-3.1999969-7.0999999-7.0999985v-28h33
		V110.5z M49.0999985,99.5c0,3.0999985-2.5,5.5-5.5,5.5S38,102.5,38,99.5V88.6999969h11.0999985V99.5z"/>
</g>
</svg>
