<?xml version="1.0" encoding="utf-8"?>
<!-- Generator: Adobe Illustrator 25.4.1, SVG Export Plug-In . SVG Version: 6.00 Build 0)  -->
<svg version="1.1" id="Layer_1" xmlns="http://www.w3.org/2000/svg" xmlns:xlink="http://www.w3.org/1999/xlink" x="0px" y="0px"
	 viewBox="0 0 130.6 130.6" style="enable-background:new 0 0 130.6 130.6;" xml:space="preserve">
<style type="text/css">
	.st0{fill:#FFFFFF;}
</style>
<path class="st0" d="M87.3,41.1l38.5,5.6c2.2,0.3,4,1.6,4.6,3.5s0,4-1.6,5.6L100.9,83l0.3,1.5l6.3,36.9c0.3,1.8-0.1,3.5-1,4.7
	c-0.9,1-2.2,1.8-3.7,1.8c-1,0-1.9-0.3-2.9-0.7L67,109.9l-0.4-0.3l-0.4-0.1h-0.1H66h-0.6c-0.4,0-0.7,0-1,0.1h-0.3l-33,17.5
	c-0.9,0.4-1.9,0.7-2.9,0.7c-1.5,0-2.8-0.6-3.7-1.6c-1-1.2-1.5-2.8-1-4.7l6.6-38.2l-1.2-1.5l-26.7-26c-1.6-1.6-2.2-3.7-1.6-5.6
	C1.2,48.3,3,47,5.2,46.7l38.5-5.6l0.9-1.6L60.6,6c1-2.1,2.8-3.2,4.7-3.2C67.2,2.8,69.1,4,70,6L87.3,41.1 M50.5,43
	c-1.3,2.8-4.6,5-7.5,5.4l-33,4.8l23.8,23.4c2.2,2.2,3.4,5.9,2.9,8.8l-5.7,33l29.5-15.6c1.6-0.9,3.5-1,4.7-1s2.9,0.1,4.7,1l29.5,15.6
	l-5.6-32.9c-0.6-2.9,0.7-6.8,2.9-8.8l23.9-23.4l-33-4.8c-3.1-0.4-6.2-2.8-7.5-5.4L65.1,13L50.5,43z"/>
</svg>
