<?xml version="1.0" encoding="utf-8"?>
<!-- Generator: Adobe Illustrator 21.1.0, SVG Export Plug-In . SVG Version: 6.00 Build 0)  -->
<svg version="1.1" id="Layer_1" xmlns="http://www.w3.org/2000/svg" xmlns:xlink="http://www.w3.org/1999/xlink" x="0px" y="0px"
	 viewBox="0 0 51.0999985 120" style="enable-background:new 0 0 51.0999985 120;" xml:space="preserve">
<style type="text/css">
	.st0{fill:#FFFFFF;}
</style>
<path class="st0" d="M6.0999999,120C2.6999998,120,0,117.0999985,0,113.5v-38c0-2.0999985,1.7-3.8000031,3.8-3.8000031h29.9000015
	C35.7999992,71.6999969,37.5,73.4000015,37.5,75.5v4.3000031h7.0999985c3.5999985,0,6.5,2.8999939,6.5,6.5v18.9999924
	c0,3.5999985-2.9000015,6.5-6.5,6.5H37.5v1.5999985c0,3.5999985-2.7999992,6.5-6.1000004,6.5H6.0999999V120z M3.8,73.8000031
	c-0.8999999,0-1.6000001,0.6999969-1.6000001,1.5999985v38c0,2.4000015,1.7,4.3000031,4,4.3000031h25.2000008
	c2.2000008,0,4-1.9000015,4-4.3000031v-38c0-0.9000015-0.7000008-1.5999985-1.5999985-1.5999985H3.8z M37.5,109.7000046h7.0999985
	c2.4000015,0,4.2999992-1.9000015,4.2999992-4.3000031v-19c0-2.4000015-1.9000015-4.2999954-4.2999992-4.2999954H37.5v3.2999954
	h4.2999992c2.0999985,0,3.7999992,1.6999969,3.7999992,3.8000031v13.5999985c0,2.0999985-1.7000008,3.8000031-3.7999992,3.8000031
	H37.5V109.7000046z M37.5,104.2000046h4.2999992c0.9000015,0,1.5999985-0.6999969,1.5999985-1.5999985V89
	c0-0.9000015-0.7000008-1.5999985-1.5999985-1.5999985H37.5V104.2000046z M18.7000008,110.5
	c-0.2999992,0-0.6000004-0.0999985-0.7999992-0.3000031c-0.2000008-0.1999969-0.2999992-0.5-0.2999992-0.8000031v-2.4999924
	l-1,0.6999969c-0.2999992,0.1999969-0.5,0.1999969-0.6999998,0.1999969c-0.3999996,0-0.6999998-0.1999969-0.8999996-0.5
	c-0.1000004-0.1999969-0.1999998-0.5-0.1000004-0.8000031c0.1000004-0.3000031,0.1999998-0.5,0.5-0.6999969l2.0999994-1.4000015
	l0.1000004-4.5v-0.5l-4.3000021,2.5000076L13,104.3000031c-0.1000004,0.6999969-0.5,1.0999985-1.1000004,1.0999985
	C11.5,105.4000015,11.1999998,105.2000046,11,105c-0.1999998-0.1999969-0.3000002-0.5-0.1999998-0.8000031l0.1000004-1
	L9,104.3000031C8.6999998,104.4000015,8.6000004,104.5,8.3999996,104.5c-0.4000001,0-0.8000002-0.1999969-1-0.5999985
	c-0.0999999-0.3000031-0.1999998-0.5999985-0.0999999-0.8000031c0.0999999-0.3000031,0.3000002-0.5,0.5-0.5999985L10,101.1999969
	L8.6000004,100.5C8.2000008,100.3000031,8,100,8,99.5c0-0.5999985,0.5-1.0999985,1.1000004-1.0999985l0,0
	c0.1999998,0,0.3000002,0,0.5,0.0999985l2.6000004,1.1999969l4-2.1999969l0.3999996-0.1999969L12,94.7000046l-2.3999996,1
	c-0.2000008,0.1999969-0.3000002,0.1999969-0.5,0.1999969c-0.3999996,0-0.8000002-0.3000031-1-0.5999985
	C8,95,8,94.7000046,8.1000004,94.5s0.3000002-0.5,0.6000004-0.5999985L9.6000004,93.5l-1.6999998-1
	c-0.3000002-0.1999969-0.5-0.5-0.5999999-0.9000015C7.3000007,91,7.7000008,90.5,8.3000011,90.5l0,0
	c0.3000002,0,0.3999996,0.0999985,0.6000004,0.1999969l1.8999996,1.0999985l-0.1000004-1.5
	c0-0.6999969,0.5-1.1999969,1.1000004-1.1999969s1,0.5,1.1000004,1l0.1999998,2.8000031l4.0999994,2.5l0.3999996,0.1999969
	v-5.3000031l-2.1999998-1.6999969c-0.3000002-0.1999969-0.5-0.5-0.5-0.9000015c0-0.5999985,0.5-1.0999985,1.0999994-1.0999985l0,0
	c0.2000008,0,0.3999996,0.0999985,0.6000004,0.2000046l1,0.6999969v-2c0-0.5999985,0.5-1.0999985,1.1000004-1.0999985
	s1.1000004,0.5,1.1000004,1.0999985v2l1-0.6999969c0.2000008-0.1000061,0.3999996-0.2000046,0.6000004-0.2000046
	c0.3999996,0,0.7000008,0.2000046,0.8999996,0.5c0.2000008,0.1999969,0.2000008,0.5,0.2000008,0.8000031
	c-0.1000004,0.3000031-0.2000008,0.5-0.5,0.6999969L19.9000015,90l-0.1000004,5v0.5l4.3999996-2.5L24.5,90c0-0.5999985,0.5-1,1-1
	c0.3999996,0,0.7000008,0.1999969,0.8999996,0.4000015s0.2999992,0.5,0.2000008,0.8000031l-0.1000004,1.5l1.8999996-1.0999985
	c0.1000004-0.0999985,0.2999992-0.0999985,0.5-0.0999985l0,0c0.5,0,0.7999992,0.1999969,1,0.5999985
	C30,91.4000092,30.1000004,91.6000061,30,91.9000092s-0.2999992,0.5-0.5,0.6999969l-1.7000008,1l0.8999996,0.4000015
	c0.2999992,0.1999969,0.5,0.4000015,0.6000004,0.6999969c0.1000004,0.3000031,0.1000004,0.5999985-0.1000004,0.8000031
	c-0.2000008,0.4000015-0.6000004,0.5999985-1,0.5999985c-0.2000008,0-0.3999996,0-0.5-0.0999985l-2.1000004-1l-4.3999996,2.4000015
	l-0.3999996,0.1999969l4.1000004,2.4000015l2.7999992-1.1999969c0.2000008-0.0999985,0.2999992-0.0999985,0.5-0.0999985
	c0.3999996,0,0.7999992,0.1999969,1,0.5999985c0.2999992,0.5,0,1.1999969-0.5,1.4000015l-1.3999996,0.6999969l2.1000004,1.1999969
	c0.6000004,0.4000015,0.7000008,1,0.3999996,1.5c-0.2000008,0.3000031-0.5,0.5-0.8999996,0.5
	c-0.2000008,0-0.3999996-0.0999985-0.6000004-0.1999969l-1.8999996-1.0999985l0.1000004,1
	c0,0.6999969-0.5,1.1999969-1.1000004,1.1999969s-1.1000004-0.5-1.1000004-1.0999985l-0.2000008-2.3000031L20,99.5999985
	l-0.3999996-0.1999969v4.8000031l2.2000008,1.6999969c0.2999992,0.1999969,0.5,0.5,0.5,0.8000031s0,0.5999985-0.2000008,0.8000031
	c-0.2000008,0.3000031-0.5,0.4000015-0.8999996,0.4000015c-0.2000008,0-0.5-0.0999985-0.6000004-0.1999969l-1-0.6999969v2.5
	C19.7999992,110,19.2999992,110.5,18.7000008,110.5L18.7000008,110.5z M16,69.6999969
	c-0.6000004,0-1.1000004-0.5-1.1000004-1.0999908c0-1.4000092,0.5-2.7000046,1.2999992-3.9000092l0.2999992-0.3999939h-3.3000002
	c-2.5,0.0999908-4.3000002,2-4.3000002,4.2999954c0,0.5999985-0.5,1.0999985-1.0999999,1.0999985
	s-1.0999999-0.5-1.0999999-1.0999985c0-3.5,2.9000006-6.4000015,6.4000006-6.5H24
	c1.1000004,0,1.7999992-0.7000008,1.7999992-1.5999985c0-0.9000015-0.7000008-1.5999985-1.6000004-1.5999985H10.6000004
	c-2.1999998-0.2000008-3.8000002-1.7999992-3.8000002-3.7999992s1.5-3.6000023,3.5-3.7999992h0.3000002h8.1000004
	C21.1000004,51.3000031,23,49.4000015,23,47.0000038c0-0.2999992,0.1000004-0.6000023,0.2999992-0.7999992
	c0.2000008-0.2000008,0.5-0.2999992,0.7999992-0.2999992s0.6000004,0.1000023,0.7999992,0.2999992
	c0.2000008,0.2000008,0.2999992,0.5,0.2999992,0.7999992c0,1.3999977-0.5,2.7999992-1.2999992,3.8999977l-0.2999992,0.4000015
	h3.2999992c2.3999996,0,4.2999992-1.9000015,4.2999992-4.2999992c0-0.6000023,0.5-1.1000023,1.0999985-1.1000023
	c0.2999992,0,0.5999985,0.1000023,0.7999992,0.3000031c0.2000008,0.1999969,0.2999992,0.5,0.2999992,0.7999954
	c0,3.5-2.7000008,6.3000031-6.2000008,6.5h-0.2999992H16c-0.8999996,0-1.6000004,0.7000046-1.6000004,1.6000023
	c0,0.9000015,0.6999998,1.5999985,1.6000004,1.5999985h13.6000004h0.2999992c2,0.0999985,3.5000019,1.7999992,3.5000019,3.7999992
	s-1.6000004,3.5999985-3.5,3.8000031h-5.7000008h-2.8999996c-2.2999992,0.0999908-4.1999989,2-4.1999989,4.2999954
	C17.1000004,69.3000031,16.6000004,69.6999969,16,69.6999969L16,69.6999969z M27.7000008,59.2000008
	c0.2000008,0.4000015,0.2000008,0.9000015,0.2000008,1.2999992c0,0.4000015-0.1000004,0.7999992-0.2000008,1.2999992
	l-0.1000004,0.4000015H29.5c1.1000004,0,1.7999992-0.7000008,1.7999992-1.5999985
	c0-0.9000015-0.7000008-1.5999985-1.6000004-1.5999985h-2L27.7000008,59.2000008z M12.6000004,56.7000008L12.5,56.2999992
	C12.3000002,55.8999977,12.3000002,55.3999977,12.3000002,55c0-0.4000015,0.1000004-0.7999992,0.1999998-1.2999992
	l0.1000004-0.3999977h-2C9.6999998,53.3000031,9,54,9,54.9000015S9.6999998,56.5,10.6000004,56.5h0.1000004L12.6000004,56.7000008z"
	/>
</svg>
