<?xml version="1.0" encoding="utf-8"?>
<!-- Generator: Adobe Illustrator 21.1.0, SVG Export Plug-In . SVG Version: 6.00 Build 0)  -->
<svg version="1.1" id="Layer_1" xmlns="http://www.w3.org/2000/svg" xmlns:xlink="http://www.w3.org/1999/xlink" x="0px" y="0px"
	 viewBox="0 0 27.7999992 120" style="enable-background:new 0 0 27.7999992 120;" xml:space="preserve">
<style type="text/css">
	.st0{fill:#FFFFFF;}
</style>
<path class="st0" d="M3.7,120h20.8999996C26.5,120,28,118.5,28,116.5999985V74.5c0-3.8000031-1.6000004-7.5-4.3999996-10.1999969
	C21,61.7999992,19.5,58.7000008,19.5,55.2999992V46c0.7000008-0.2999992,1.2000008-1.0999985,1.2000008-2v-4.5999985
	c0-1.2000046-1-2.2000046-2.2000008-2.2000046H9.6999998c-1.1999998,0-2.1999998,1-2.1999998,2.2000046V44
	c0,1,0.6000004,1.7999992,1.5,2.0999985v8.8000031c0,3.5-1.5,6.7999992-4.0999999,9.2000046
	C1.9000001,66.6999969,0.2000003,70.5,0.2000003,74.5v42.2000046C0.3,118.5,1.8,120,3.7,120z M26,109.6999969H2.3V80.5999985H26
	V109.6999969z M24.6000004,118H3.7c-0.8,0-1.3999999-0.5999985-1.3999999-1.4000015v-4.9000015H26v4.9000015
	C26,117.4000015,25.3999996,118,24.6000004,118z M11.1000004,54.7999992v-8.7000008H17.5v9.0999985
	c0,0.2000008,0,0.4000015,0,0.5999985H11C11,55.5999985,11.1000004,55.2999992,11.1000004,54.7999992z M9.6000004,39.3999977
	c0-0.1000023,0.1000004-0.2000008,0.1999998-0.2000008h8.8000002c0.1000004,0,0.2000008,0.0999985,0.2000008,0.2000008V44
	c0,0.0999985-0.1000004,0.1999969-0.2000008,0.1999969H18.5h-8.3999996H9.8000002
	c-0.1000004,0-0.1999998-0.0999985-0.1999998-0.1999969V39.3999977z M6.3000002,65.5999985
	c2.3000002-2,3.9000006-4.7000008,4.5-7.7000008h6.999999c0.6000004,2.9000015,2.1000004,5.5999985,4.5,7.7999992
	C24.6999989,68,26.0999985,71.0999985,26.0999985,74.3999939v4.2000046H2.3v-4.2000046
	C2.3,71.0999985,3.7,67.8000031,6.3000002,65.5999985z"/>
</svg>
