<?xml version="1.0" encoding="utf-8"?>
<!-- Generator: Adobe Illustrator 21.1.0, SVG Export Plug-In . SVG Version: 6.00 Build 0)  -->
<svg version="1.1" id="Layer_1" xmlns="http://www.w3.org/2000/svg" xmlns:xlink="http://www.w3.org/1999/xlink" x="0px" y="0px"
	 viewBox="0 0 112 120" style="enable-background:new 0 0 112 120;" xml:space="preserve">
<style type="text/css">
	.st0{fill:#FFFFFF;}
</style>
<path class="st0" d="M111.8000031,57.6000023C111.5,56.4000015,110.6000061,55.2000046,109.4000015,54.5
	c-1.1999969-0.6999969-2.5999985-0.8999977-3.9000015-0.5l-3,0.8000031c-0.8000031-0.2000046-1.6999969-0.1000023-2.5,0.0999985
	L95.8000031,56c-0.9000015,0.2000046-1.6999969,0.7000046-2.4000015,1.3000031l-1.3000031,0.3999977
	C91.6999969,57.5,91.1999969,57.4000015,90.7999954,57.5l-0.8999939,0.4000015C89.5,58,89.2000046,58.2000008,89,58.5
	c-0.5999985-0.0999985-1.1999969,0-1.6999969,0.1000023c-0.5999985,0.2000008-1.1999969,0.4000015-1.5999985,0.7999992
	c-0.4000015-0.0999985-0.9000015-0.0999985-1.3000031,0l-0.6999969,0.2000008c-0.4000015,0.0999985-1.0999985,0.5-1.5,1.0999985
	L36.4000015,73.4000015l-0.5-1.7999954l3.5-7.8000031c0.7999992-0.2000008,1.4000015-0.9000015,1.4000015-1.7999992
	c0-1-0.7999992-1.7999992-1.7999992-1.7999992H25.7999992c-0.2000008,0-0.5,0.0999985-0.6000004,0.2000008
	c-0.2000008,0.2000008-0.5,0.4000015-0.7999992,0.5999985C24.2999992,61.1000023,24.1000004,61.3000031,24,61.4000053
	l-0.2000008,0.2000008l-0.1000004,0.0999985l-0.0999985,0.1999969l0,0c0,0,0,0-0.1000004,0.0999985
	c-0.5,0.5-0.8999996,0.7999992-1.6000004,0.7999992C21.3999996,62.7999992,21,62.5,20.5,62l-0.1000004-0.0999985
	l-1.1000004-1.2000008C19.0999985,60.5,18.8999996,60.4000015,18.6999989,60.2999992
	c-0.2000008-0.0999985-0.3999996-0.0999985-0.5-0.0999985H7.0999999c-1,0-1.7999997,0.7999992-1.7999997,1.7999992
	c0,0.9000015,0.5999999,1.5999985,1.4000001,1.7999992l3.5000005,7.7999992l-10,37.9000015
	c-0.6,2.0999985-0.1,4.4000015,1.4,6.3000031C3.6000009,118.4000015,7.000001,120,10.3000002,120h25.2999992
	c3.2999992,0,6.7999992-1.6999969,8.7000008-4.1999969c1.5-1.9000015,2-4.0999985,1.4000015-6.3000031l-7.4000015-28.1999969
	l13.9000015-3.4000015l0,0l0,0l32.2999992-8c0.4000015,0.2000046,0.8000031,0.4000015,1.3000031,0.4000015
	c0.1999969,0,0.4000015,0,0.6999969-0.0999985L87.1999969,70C87.5999985,69.9000092,88,69.6000061,88.2999954,69.3000031
	c0.5999985,0.0999985,1.1999969,0,1.8000031-0.0999985C90.6999969,69,91.1999969,68.8000031,91.6999969,68.5
	c0.3000031,0.1000061,0.6999969,0.1000061,1.0999985,0l0.9000015-0.1999969c0.5999985-0.1999969,1-0.5999985,1.1999969-1.0999985
	L96,66.9000015c0.9000015,0.2000046,1.8000031,0.2000046,2.6999969,0l4.1999969-1.0999985
	c0.8000031-0.1999969,1.5999985-0.5999985,2.1999969-1.1999969l3-0.8000031c1.4000015-0.2999992,2.5-1.2000008,3.1999969-2.4000015
	C112,60.2000008,112.1999969,58.7000008,111.8000031,57.6000023z M8.6000004,62.5h9.3000011l1,1
	c0.5,0.5,1.3999996,1.5999985,3.1000004,1.5999985c1.6000004,0,2.5-0.7999954,3.2999992-1.5999985c0,0,0,0,0.1000004-0.0999985l0,0
	l0.1000004-0.0999985l0.1000004-0.0999985l0,0c0,0,0,0,0.1000004-0.0999985l0.2000008-0.2000008
	c0.1000004-0.0999985,0.2000008-0.2000008,0.2999992-0.2999992c0.1000004-0.0999985,0.1000004-0.0999985,0.2000008-0.2000008
	h11.3000011L34,70.1999969H12L8.6000004,62.5z M42.5999985,114.4000015c-1.5,2-4.2999992,3.3000031-6.9000015,3.3000031H10.3999996
	c-2.5999999,0-5.4000001-1.3000031-6.9000001-3.3000031c-0.7-0.9000015-1.5-2.4000015-1-4.1999969
	C10,111.1000061,17.1000004,111.6000061,23.8999996,111.6000061c6.8999996,0,13.3999996-0.5,19.7999973-1.4000015
	C44.0999985,112,43.2999992,113.4000015,42.5999985,114.4000015z M3,107.9000015l9.1999998-35.2000046h21.7000008L43,107.9000015
	C30.7999992,109.7000046,17.7000008,109.7000046,3,107.9000015z M37.9000015,79.1000061L37,75.6000061l12.5999985-3.5l1,3.7999954
	L37.9000015,79.1000061z M52.5999985,75.5l-1-3.9000015l30.5999985-8.5l1.1999969,4.7000046L52.5999985,75.5z
	 M109.3000031,60.2000008c-0.4000015,0.7000008-1,1.0999985-1.8000031,1.2999992l-3.3000031,0.7999992
	c-0.1999969,0-0.4000015,0.0999985-0.5,0.2999992c-0.4000015,0.4000015-0.9000015,0.7000008-1.4000015,0.7999992L98.0999985,64.5
	c-0.5999985,0.1999969-1.1999969,0.0999908-1.8000031,0c-0.1999969-0.1000061-0.4000015-0.1000061-0.5999985,0L93.5,65
	c-0.3000031,0.0999908-0.5,0.2999954-0.6999969,0.5c-0.0999985,0.0999908-0.0999985,0.2999954-0.0999985,0.3999939L92.4000015,66
	C92.2000046,65.7999954,92,65.6999969,91.7000046,65.5999908C91.3000031,65.5,90.9000015,65.6999969,90.6000061,66
	c-0.3000031,0.3999939-0.8000031,0.5999908-1.1999969,0.7999954c-0.5,0.0999985-0.9000015,0.0999985-1.4000015,0
	C87.4000092,66.5999908,86.8000107,66.8999939,86.6000061,67.5c0,0-0.0999985,0.0999908-0.1999969,0.0999908l-0.6000061,0.3000107
	h-0.0999985l-1.5999985-6.2000008l0,0L84.8000031,61.5c0.0999985,0,0.0999985,0,0.0999985,0.0999985
	C85.4000015,62,86.0999985,61.8999977,86.5,61.5c0.3000031-0.4000015,0.6999969-0.5999985,1.1999969-0.7000008
	c0.4000015-0.0999985,0.9000015-0.0999985,1.3000031,0c0.1999969,0.0999985,0.4000015,0.0999985,0.5999985,0h0.0999985
	C90.0999985,60.7000008,90.3999939,60.3999977,90.5,60l0.4000015-0.0999985
	C91.2000046,60.1000023,91.5999985,60.2000008,92,60.1000023l2.1999969-0.5999985
	c0.1999969-0.0999985,0.4000015-0.2000008,0.5-0.2999992c0.4000015-0.4000015,1-0.7999992,1.5-0.9000015l4.1999969-1.0999985
	c0.5-0.0999985,1.0999985-0.2000008,1.6999969,0c0.1999969,0.0999985,0.4000015,0,0.5999985,0l3.3000031-0.9000015
	c0.8000031-0.1999969,1.5-0.0999985,2.1999969,0.3000031c0.6999969,0.3999977,1.1999969,1,1.3000031,1.6999969
	C109.8000031,58.8000031,109.6999969,59.5,109.3000031,60.2000008z"/>
</svg>
