<svg id="Layer_1" data-name="Layer 1" xmlns="http://www.w3.org/2000/svg" viewBox="0 0 28 28"><defs><style>.cls-1{fill:#e9255d;}</style></defs><title>logo-gift</title><path class="cls-1" d="M26.35,7.18H25a4,4,0,0,0,1.59-1.86,3.24,3.24,0,0,0-.13-2.51c-.41-.89-1.76-2.79-5.36-1.19a11,11,0,0,0-4.06,3.45,2.12,2.12,0,0,0-1.72-.87H12.64a2.12,2.12,0,0,0-1.72.87A11,11,0,0,0,6.86,1.62C3.26,0,1.91,1.92,1.5,2.81a3.24,3.24,0,0,0-.13,2.51A4,4,0,0,0,3,7.18H1.65A.65.65,0,0,0,1,7.83v5.68a.65.65,0,0,0,.65.65h.84V26.35a.66.66,0,0,0,.66.65h21.7a.66.66,0,0,0,.66-.65V14.16h.84a.65.65,0,0,0,.65-.65V7.83A.65.65,0,0,0,26.35,7.18ZM21.67,2.81c2.82-1.25,3.44.1,3.65.55a1.88,1.88,0,0,1,.09,1.5,3.53,3.53,0,0,1-2,1.73h0a9.43,9.43,0,0,1-5.82.2A9.08,9.08,0,0,1,21.67,2.81Zm-9,2.69h2.72a.83.83,0,0,1,0,1.66H12.64a.83.83,0,0,1,0-1.66Zm-10-.64a1.88,1.88,0,0,1,.09-1.5A1.66,1.66,0,0,1,4.33,2.29a5,5,0,0,1,2,.52,9.08,9.08,0,0,1,4.07,4,9.43,9.43,0,0,1-5.82-.2A3.53,3.53,0,0,1,2.59,4.86ZM2.3,8.48h8.21v4.38H2.3ZM3.8,25.7V14.16h6.71V25.7Zm8,0V8.48h4.38V25.7Zm12.39,0H17.49V14.16H24.2Zm1.5-12.84H17.49V8.48H25.7Z"/></svg>