<?xml version="1.0" encoding="utf-8"?>
<!-- Generator: Adobe Illustrator 21.1.0, SVG Export Plug-In . SVG Version: 6.00 Build 0)  -->
<svg version="1.1" id="Layer_1" xmlns="http://www.w3.org/2000/svg" xmlns:xlink="http://www.w3.org/1999/xlink" x="0px" y="0px"
	 viewBox="0 0 50.5999985 120" style="enable-background:new 0 0 50.5999985 120;" xml:space="preserve">
<style type="text/css">
	.st0{fill:#FFFFFF;}
</style>
<g>
	<path class="st0" d="M49.5999985,62.1000023l-4.2000008-9.2999992v-5.7000008c0-0.7999992-0.5999985-1.3999977-1.4000015-1.3999977
		H6.6999998c-0.8000002,0-1.4000001,0.5999985-1.4000001,1.3999977v5.7000008l-4.1999998,9.2999992
		c-0.7,1.5-1.1,3.2000008-1.1,5.0000038v51.4999924c0,0.8000031,0.7,1.4000015,1.4,1.4000015h47.9000015
		c0.7999992,0,1.4000015-0.5999985,1.4000015-1.4000015V67.1999969
		C50.5999985,65.4000015,50.2999992,63.7000008,49.5999985,62.1000023z M8,48.4000015h34.5999985v3.2000008H8V48.4000015z
		 M47.9000015,117.3000031H2.7V67.1999969C2.7,65.9000015,3,64.5,3.5,63.2999992l4.0999999-8.8999977H43l4.0999985,8.8999977
		c0.5,1.0999947,0.7999992,2.2999992,0.7999992,3.8999977C47.9000015,67.1999969,47.9000015,117.3000031,47.9000015,117.3000031z"/>
	<path class="st0" d="M18.6000004,90c3,0,5.5-3,5.5-6.5999985s-2.5-6.5999985-5.5-6.5999985s-5.5,3-5.5,6.5999985
		S15.6999998,90,18.6000004,90z M19.8999996,81.5c0.2000008-0.3000031,0.2999992-0.5999985,0.5-1
		c0.6000004,0.6999969,1,1.9000015,1,3s-0.3999996,2.1999969-1,2.9000015c-0.2000008-0.5-0.2999992-0.9000015-0.5-1.2000046
		c-0.2999992-0.5-0.5-1-0.5-1.7999954S19.6000004,82,19.8999996,81.5z M17.6000004,79.9000015
		C17.5,80,17.5,80.1999969,17.3999996,80.3000031L17.2999992,80.5C17,81.1000061,16.5,82,16.5,83.4000092
		C16.5,85,16.8999996,85.8000031,17.3999996,86.5c0,0,0.2000008,0.4000015,0.2000008,0.5000076
		c-1-0.5999985-1.6999998-1.9000015-1.6999998-3.5C15.8999996,81.9000015,16.6000004,80.4000015,17.6000004,79.9000015z"/>
	<path class="st0" d="M32.0999985,84.3000031c-0.2999992,0-0.5,0-0.7999992,0.0999985
		c-1.6000004,0.2000046-3.1000004,1-4.2000008,2.2000046c-1.2000008,1.1999969-2,2.7999954-2.1000004,4.3999939
		s0.2999992,3.0999985,1.3999996,4.0999985C27.2999973,96,28.5999985,96.5,29.9999981,96.5
		c1.7000008,0,3.5000019-0.8000031,4.8999996-2.1999969c2.5-2.5,2.7999992-6.4000015,0.7999992-8.4000015
		C34.7999992,84.8000031,33.5,84.3000031,32.0999985,84.3000031z M29.5,88.8000031c-1.1000004,1-1.3999996,2-1.6000004,2.6999969
		v0.0999985c-0.1000004,0.1999969-0.1000004,0.4000015-0.2000008,0.5c-0.2999992-1.1999969,0.2000008-2.8000031,1.2999992-3.9000015
		c0.7999992-0.8000031,1.7000008-1.3000031,2.6000004-1.4000015H32c0.2999992,0,0.5,0,0.7999992,0.0999985
		c-0.0999985,0-0.2999992,0.0999985-0.4000015,0.0999985C31.6000004,87.4000015,30.7000008,87.7000046,29.5,88.8000031z
		 M32.9000015,92.3000031c-0.7999992,0.8000031-1.7999992,1.3000031-2.7999992,1.4000015
		c0.1000004-0.3000031,0.2000008-0.5999985,0.2999992-0.8000031c0-0.0999985,0.1000004-0.3000031,0.2000008-0.4000015
		l0.1000004-0.1999969c0.2000008-0.5,0.2999992-0.9000015,0.8999996-1.4000015c0.5999985-0.5999985,1-0.6999969,1.5-0.9000015
		h0.0999985c0.2999992-0.0999985,0.7000008-0.1999969,1.0999985-0.4000015
		C34.2000008,90.4000015,33.7000008,91.4000015,32.9000015,92.3000031z"/>
	<path class="st0" d="M30.5,81.4000015h0.6000004c1.4999981,0,2.6999989-0.5,3.6000004-1.4000015
		C35.7999992,78.9000015,36.2999992,77.4000015,36,75.8000031c-0.2000008-1.6000061-1-3.1000061-2.2000008-4.2000046
		C32.5,70.3000031,30.6999989,69.5,28.8999996,69.5C27.5,69.5,26.1999989,70,25.2999992,70.9000015
		c-1,1-1.5,2.5-1.3999996,4.0999985S24.7999992,78.1999969,26,79.4000015C27.5,80.5,28.8999996,81.1999969,30.5,81.4000015z
		 M28.8999996,72c1.1000004,0.0999985,2.2000008,0.5999985,3,1.5c0.8000011,0.8000031,1.3000011,1.6999969,1.3999996,2.5999985
		c0.0999985,0.4000015,0,0.7000046-0.0999985,1.0999985c0-0.0999985-0.0999985-0.3000031-0.0999985-0.4000015
		c-0.2000008-0.7000046-0.5-1.5999985-1.6000004-2.7999954c-1-1.1000061-2-1.4000092-2.7000008-1.6000061h-0.1000004
		C28.5,72.3000031,28.3000011,72.3000031,28.1000004,72.1999969C28.2999992,72,28.6000004,72,28.8999996,72z M27.6000004,74.9000015
		C27.7000008,74.9000015,27.8999996,75,28,75.1000061l0.2000008,0.0999908c0.5,0.2000046,0.8999996,0.3000031,1.3999996,0.9000092
		c0.6000004,0.5999908,0.7000008,1,0.8999996,1.5v0.0999908C30.6000004,78,30.7000008,78.4000015,30.8999996,78.8000031h-0.2999992
		C29.7000008,78.6999969,28.8000011,78.1999969,28,77.3999939c-0.7999992-0.7999954-1.2999992-1.7999954-1.3999996-2.7999954
		C27.1000004,74.6999969,27.2999992,74.8000031,27.6000004,74.9000015z"/>
	<path class="st0" d="M36.0999985,101.7000046H14.6000004c-0.8000002,0-1.3999996,0.5999985-1.3999996,1.4000015
		s0.6000004,1.4000015,1.3999996,1.4000015h21.6000004c0.7999992,0,1.4000015-0.5999985,1.4000015-1.4000015
		C37.5,102.2000046,36.7999992,101.7000046,36.0999985,101.7000046z"/>
</g>
</svg>
